# AST/ASF file generated using VICON BodyLanguage
# -----------------------------------------------
:version 1.10
:name VICON
:units
  mass 1.0
  length 0.45
  angle deg
:documentation
   .ast/.asf automatically generated from VICON data using
   VICON BodyBuilder and BodyLanguage model FoxedUp or BRILLIANT.MOD
:root
   order TX TY TZ RX RY RZ
   axis XYZ
   position 0 0 0  
   orientation 0 0 0 
:bonedata
  begin
     id 1 
     name lhipjoint
     direction 0.567725 -0.736092 0.368589 
     length 2.42353 
     axis 0 0 0  XYZ
  end
  begin
     id 2 
     name lfemur
     direction 0.34202 -0.939693 0  
     length 7.24894  
     axis 0 0 20  XYZ
    dof rx ry rz
    limits (-160.0 20.0)
           (-70.0 70.0)
           (-60.0 70.0)
  end
  begin
     id 3 
     name ltibia
     direction 0.34202 -0.939693 0   
     length 7.6997   
     axis 0 0 20   XYZ
    dof rx
    limits (-10.0 170.0)
  end
  begin
     id 4 
     name lfoot
     direction 0.100767 -0.276854 0.955614   
     length 2.37556   
     axis -90 7.62852e-016 20   XYZ
    dof rx rz
    limits (-45.0 90.0)
           (-70.0 20.0)
  end
  begin
     id 5 
     name ltoes
     direction 1.53592e-011 -4.21894e-011 1   
     length 1.18363   
     axis -90 7.62852e-016 20   XYZ
    dof rx
    limits (-90.0 20.0)
  end
  begin
     id 6 
     name rhipjoint
     direction -0.556459 -0.742938 0.372017   
     length 2.4012  
     axis 0 0 0  XYZ 
  end
  begin
     id 7 
     name rfemur
     direction -0.34202 -0.939693 0   
     length 7.5119   
     axis 0 0 -20   XYZ
    dof rx ry rz
    limits (-160.0 20.0)
           (-70.0 70.0)
           (-70.0 60.0)
  end
  begin
     id 8 
     name rtibia
     direction -0.34202 -0.939693 0   
     length 7.50155   
     axis 0 0 -20   XYZ
    dof rx
    limits (-10.0 170.0)
 end
 begin
     id 9 
     name rfoot
     direction -0.118427 -0.325376 0.938139   
     length 2.32487  
     axis -90 -7.62852e-016 -20   XYZ
    dof rx rz
    limits (-45.0 90.0)
           (-20.0 70.0)
  end
  begin
     id 10 
     name rtoes
     direction -1.53525e-011 -4.21868e-011 1   
     length 1.15233   
     axis -90 -7.62852e-016 -20   XYZ
    dof rx
    limits (-90.0 20.0)
  end
  begin
     id 11 
     name lowerback
     direction 0.0287568 0.999577 -0.00434502   
     length 2.15243   
     axis 0 0 0   XYZ
    dof rx ry rz
    limits (-20.0 45.0)
           (-30.0 30.0)
           (-30.0 30.0)
  end
  begin
     id 12 
     name upperback
     direction 0.0294009 0.99956 0.00404628   
     length 2.15427   
     axis 0 0 0   XYZ
    dof rx ry rz
    limits (-20.0 45.0)
           (-30.0 30.0)
           (-30.0 30.0)
  end
  begin
     id 13 
     name thorax
     direction 0.0151014 0.999868 0.0059419   
     length 2.14898   
     axis 0 0 0   XYZ
    dof rx ry rz
    limits (-20.0 45.0)
           (-30.0 30.0)
           (-30.0 30.0)
  end
  begin
     id 14 
     name lowerneck
     direction -0.0249197 0.989906 0.139515   
     length 1.6861   
     axis 0 0 0   XYZ
    dof rx ry rz
    limits (-20.0 45.0)
           (-30.0 30.0)
           (-30.0 30.0)
  end
  begin
     id 15 
     name upperneck
     direction 0.0438463 0.988795 -0.142693   
     length 1.71276   
     axis 0 0 0   XYZ
    dof rx ry rz
    limits (-20.0 45.0)
           (-30.0 30.0)
           (-30.0 30.0)
  end
  begin
     id 16
     name head
     direction 0.0148499 0.997845 -0.0639186  
     length 1.7209  
     axis 0 0 0   XYZ
    dof rx ry rz
    limits (-20.0 45.0)
           (-30.0 30.0)
           (-30.0 30.0)
  end
  begin
     id 17 
     name lclavicle
     direction 0.940298 0.323464 -0.105876  
     length 3.9048  
     axis 0 0 0   XYZ
    dof ry rz
    limits (-20.0 10.0)
           (0.0 20.0)
  end
  begin
     id 18 
     name lhumerus
     direction 1 -4.48954e-011 -4.9675e-028   
     length 4.6851   
     axis 180 -30 -90   XYZ
    dof rx ry rz
    limits (-60.0 90.0)
           (-90.0 90.0)
           (-90.0 90.0)
  end
  begin
     id 19
     name lradius
     direction 1 -4.48992e-011 -1.03359e-026   
     length 3.39626   
     axis 180 -30 -90   XYZ
    dof rx
    limits (-10.0 170.0)
  end
  begin
     id 20
     name lwrist
     direction 1 -4.48906e-011 -1.67336e-026   
     length 1.69813   
     axis 9.90442e-015 90 90   XYZ
    dof ry
    limits (-180.0 0.0)
 end
  begin
     id 21 
     name lhand
     direction 1 -4.49006e-011 -3.34673e-026   
     length 0.486078   
     axis 2.1355e-014 90 90   XYZ
    dof rx rz
    limits (-90.0 90.0)
           (-45.0 45.0)
  end
  begin
     id 22 
     name lfingers
     direction 1 -4.48992e-011 -6.69345e-026   
     length 0.391889   
     axis 4.27099e-014 90 90   XYZ
    dof rx
    limits (0.0 90.0)
  end
  begin
     id 23
     name lthumb
     direction 0.707107 -6.34926e-011 0.707107   
     length 0.562676   
     axis -90 45 2.85299e-015   XYZ
    dof rx rz
    limits (-45.0 45.0)
           (-45.0 45.0)
  end
  begin
     id 24 
     name rclavicle
     direction -0.882459 0.414895 -0.221648   
     length 3.44646  
     axis 0 0 0   XYZ 
    dof ry rz
    limits (-10.0 20.0)
           (-20.0 0.0)
  end
  begin
     id 25 
     name rhumerus
     direction -1 -4.48962e-011 -2.37984e-027  
     length 5.55576   
     axis 180 30 90   XYZ
    dof rx ry rz
    limits (-90.0 60.0)
           (-90.0 90.0)
           (-90.0 90.0)
  end
  begin
     id 26 
     name rradius
     direction -1 -4.48982e-011 -6.86791e-027   
     length 3.32774   
     axis 180 30 90   XYZ
    dof rx
    limits (-10.0 170.0)
  end
  begin
     id 27 
     name rwrist
     direction -1 -4.48961e-011 -1.67336e-026   
     length 1.66387   
     axis 9.90442e-015 -90 -90   XYZ
    dof ry
    limits (-180.0 0.0)
  end
  begin
     id 28
     name rhand
     direction -1 -4.4897e-011 -3.34673e-026   
     length 0.507628   
     axis 2.1355e-014 -90 -90   XYZ
    dof rx rz
    limits (-90.0 90.0)
           (-45.0 45.0)
  end
  begin
     id 29
     name rfingers
     direction -1 -4.48854e-011 -6.69345e-026   
     length 0.409263   
     axis 4.27099e-014 -90 -90   XYZ
    dof rx
    limits (0.0 90.0)
  end
  begin
     id 30
     name rthumb
     direction -0.707107 -6.34913e-011 0.707107   
     length 0.587622   
     axis -90 -45 -2.85299e-015   XYZ
    dof rx rz
    limits (-45.0 45.0)
           (-45.0 45.0)
  end
:hierarchy
  begin
    root lhipjoint rhipjoint lowerback
    lhipjoint lfemur
    lfemur ltibia
    ltibia lfoot
    lfoot ltoes
    rhipjoint rfemur
    rfemur rtibia
    rtibia rfoot
    rfoot rtoes
    lowerback upperback
    upperback thorax
    thorax lowerneck lclavicle rclavicle
    lowerneck upperneck
    upperneck head
    lclavicle lhumerus
    lhumerus lradius
    lradius lwrist
    lwrist lhand lthumb
    lhand lfingers
    rclavicle rhumerus
    rhumerus rradius
    rradius rwrist
    rwrist rhand rthumb
    rhand rfingers
  end

#!OML:ASF E:\motion texture\Top Level 1\Subject 1\Session 1\male.ASF
:FULLY-SPECIFIED
:DEGREES
48
root 23.4221 17.5935 5.56542 49.5284 -76.4149 -42.2139
lowerback -2.95872 4.92028 6.40074
upperback -3.32731 6.4088 0.426291
thorax -1.13903 3.07149 -2.95938
lowerneck -7.66586 -10.606 -14.0361
upperneck 8.16647 -13.588 8.98189
head 5.27705 -6.66348 3.92617
rclavicle 3.13831e-014 -7.95139e-016
rhumerus -2.1008 15.4622 -69.3953
rradius 52.3572
rwrist 7.4271
rhand -17.8908 -22.7279
rfingers 7.12502
rthumb 8.37568 -52.5418
lclavicle 3.13831e-014 -7.95139e-016
lhumerus -46.6424 29.1006 61.9658
lradius 21.5141
lwrist -30.857
lhand -9.56729 20.2203
lfingers 7.12502
lthumb 16.4003 49.547
rfemur 1.07598 -0.762762 35.0314
rtibia 17.7054
rfoot -16.8873 -11.4909
rtoes 0.54735
lfemur -30.6961 -5.22674 -5.74136
ltibia 13.3742
lfoot -2.60697 3.93636
ltoes -16.5189
49
root 23.2798 17.5854 5.5878 49.9013 -76.5967 -42.6183
lowerback -2.899 4.9091 6.31896
upperback -3.27709 6.39949 0.404899
thorax -1.12701 3.07035 -2.93992
lowerneck -7.69371 -10.5858 -14.0404
upperneck 8.04783 -13.5526 9.02147
head 5.2439 -6.64277 3.94393
rclavicle -7.03077e-014 -1.59028e-014
rhumerus -4.3467 16.1797 -70.589
rradius 52.652
rwrist 7.24276
rhand -17.8262 -22.6258
rfingers 7.12502
rthumb 8.43803 -52.4372
lclavicle -7.03077e-014 -1.59028e-014
lhumerus -46.6581 29.2506 61.9079
lradius 21.3224
lwrist -31.4023
lhand -9.38512 20.1688
lfingers 7.12502
lthumb 16.5757 49.4809
rfemur 1.22106 -0.580587 34.9641
rtibia 18.4819
rfoot -16.9515 -11.5689
rtoes -0.972413
lfemur -30.6495 -5.33113 -5.91455
ltibia 14.1815
lfoot -1.84521 3.87797
ltoes -15.6538
50
root 23.135 17.5798 5.61117 50.1976 -76.8431 -42.942
lowerback -2.852 4.90382 6.17325
upperback -3.22602 6.39814 0.366882
thorax -1.11092 3.07446 -2.90108
lowerneck -7.74326 -10.5729 -14.0145
upperneck 7.96537 -13.5261 9.02886
head 5.22219 -6.62681 3.94458
rclavicle -7.37988e-015 1.59028e-015
rhumerus -6.55285 16.7703 -71.8613
rradius 52.6392
rwrist 7.15143
rhand -17.6646 -22.5606
rfingers 7.12502
rthumb 8.59403 -52.3657
lclavicle -7.37988e-015 1.59028e-015
lhumerus -46.6774 29.4453 61.8091
lradius 21.1183
lwrist -32.0093
lhand -9.22991 20.1025
lfingers 7.12502
lthumb 16.7251 49.4021
rfemur 1.33466 -0.371634 34.8232
rtibia 19.3297
rfoot -16.9555 -11.6282
rtoes -2.5572
lfemur -30.5514 -5.48345 -6.13417
ltibia 14.9521
lfoot -1.05562 3.80133
ltoes -14.3768
51
root 22.9875 17.5771 5.63555 50.2913 -77.1607 -43.048
lowerback -2.83532 4.88675 5.93955
upperback -3.17448 6.38026 0.305206
thorax -1.08531 3.07203 -2.83633
lowerneck -7.79973 -10.5494 -13.9791
upperneck 7.90188 -13.4877 9.04173
head 5.20589 -6.6044 3.94623
rclavicle 1.12189e-014 1.59028e-015
rhumerus -8.69329 17.2371 -73.2266
rradius 52.2889
rwrist 7.17338
rhand -17.3243 -22.5249
rfingers 7.12502
rthumb 8.9224 -52.3163
lclavicle 1.12189e-014 1.59028e-015
lhumerus -46.7111 29.6537 61.686
lradius 20.9301
lwrist -32.5759
lhand -9.09496 20.0176
lfingers 7.12502
lthumb 16.855 49.3061
rfemur 1.40088 -0.155054 34.5746
rtibia 20.2572
rfoot -16.8903 -11.657
rtoes -4.19759
lfemur -30.4201 -5.67687 -6.44184
ltibia 15.6775
lfoot -0.320858 3.72528
ltoes -12.8582
52
root 22.8378 17.5778 5.66067 50.0894 -77.5384 -42.8398
lowerback -2.84607 4.85599 5.61383
upperback -3.1331 6.34405 0.212081
thorax -1.0624 3.06145 -2.75226
lowerneck -7.83548 -10.5168 -13.9228
upperneck 7.85441 -13.4445 9.06191
head 5.18975 -6.57956 3.9484
rclavicle -2.39287e-014 -7.15625e-015
rhumerus -10.7784 17.5196 -74.68
rradius 51.5932
rwrist 7.31235
rhand -16.7172 -22.4891
rfingers 7.12502
rthumb 9.50818 -52.2546
lclavicle -2.39287e-014 -7.15625e-015
lhumerus -46.7781 29.8935 61.495
lradius 20.7478
lwrist -33.1443
lhand -8.98944 19.8945
lfingers 7.12502
lthumb 16.9566 49.1744
rfemur 1.4047 0.039949 34.2074
rtibia 21.2693
rfoot -16.7408 -11.6471
rtoes -5.87662
lfemur -30.266 -5.89728 -6.85415
ltibia 16.3507
lfoot 0.292194 3.65838
ltoes -11.2499
53
root 22.6862 17.5825 5.68614 49.584 -77.9527 -42.3263
lowerback -2.87942 4.80463 5.20165
upperback -3.0885 6.28048 0.113086
thorax -1.03385 3.03865 -2.62574
lowerneck -7.86406 -10.476 -13.8729
upperneck 7.82496 -13.3922 9.08498
head 5.17764 -6.55061 3.95346
rclavicle 2.95319e-014 -5.56597e-015
rhumerus -12.78 17.6045 -76.1758
rradius 50.5432
rwrist 7.54574
rhand -15.9353 -22.4607
rfingers 7.12502
rthumb 10.2625 -52.1903
lclavicle 2.95319e-014 -5.56597e-015
lhumerus -46.8811 30.1947 61.2568
lradius 20.5767
lwrist -33.6984
lhand -8.90417 19.7595
lfingers 7.12502
lthumb 17.0387 49.0322
rfemur 1.34933 0.188928 33.7404
rtibia 22.3803
rfoot -16.5072 -11.5797
rtoes -7.49708
lfemur -30.0659 -6.11742 -7.35723
ltibia 16.9533
lfoot 0.748985 3.5805
ltoes -9.61428
54
root 22.5331 17.5908 5.71193 48.8013 -78.3586 -41.5386
lowerback -2.9112 4.73333 4.77053
upperback -3.05636 6.19129 -0.00247061
thorax -1.02071 3.00226 -2.50731
lowerneck -7.8701 -10.4315 -13.8093
upperneck 7.82207 -13.3423 9.11336
head 5.16982 -6.5231 3.95851
rclavicle 3.66012e-014 -2.38542e-014
rhumerus -14.7087 17.4498 -77.7195
rradius 49.1278
rwrist 7.84984
rhand -15.0929 -22.45
rfingers 7.12502
rthumb 11.0751 -52.1378
lclavicle 3.66012e-014 -2.38542e-014
lhumerus -46.9956 30.4379 61.0183
lradius 20.436
lwrist -34.1281
lhand -8.82309 19.6239
lfingers 7.12502
lthumb 17.1167 48.8899
rfemur 1.22632 0.262205 33.2141
rtibia 23.5992
rfoot -16.1818 -11.4463
rtoes -8.9878
lfemur -29.8208 -6.31381 -7.91594
ltibia 17.4891
lfoot 1.0537 3.45767
ltoes -8.06849
55
root 22.3787 17.602 5.73824 47.8538 -78.7086 -40.6067
lowerback -2.93679 4.63719 4.36884
upperback -3.02512 6.06899 -0.103191
thorax -1.01234 2.94843 -2.39133
lowerneck -7.86254 -10.3804 -13.7573
upperneck 7.84195 -13.2856 9.1424
head 5.16689 -6.49309 3.96645
rclavicle 2.53699e-014 3.97569e-015
rhumerus -16.5344 17.0292 -79.2479
rradius 47.3681
rwrist 8.13367
rhand -14.2322 -22.4545
rfingers 7.12502
rthumb 11.9052 -52.096
lclavicle 2.53699e-014 3.97569e-015
lhumerus -47.1281 30.6787 60.7789
lradius 20.3115
lwrist -34.4884
lhand -8.77284 19.5295
lfingers 7.12502
lthumb 17.1651 48.7913
rfemur 1.04315 0.226311 32.6787
rtibia 24.9343
rfoot -15.7621 -11.2202
rtoes -10.2518
lfemur -29.5134 -6.46727 -8.4741
ltibia 17.9644
lfoot 1.2395 3.26163
ltoes -6.52339
56
root 22.2236 17.6154 5.76457 46.9279 -78.978 -39.7226
lowerback -2.94164 4.52347 4.04167
upperback -2.99715 5.92306 -0.179779
thorax -1.01482 2.88112 -2.29396
lowerneck -7.85353 -10.3288 -13.7081
upperneck 7.89218 -13.2288 9.15939
head 5.17244 -6.46389 3.97059
rclavicle 7.01213e-014 -1.43125e-014
rhumerus -18.2518 16.3047 -80.7223
rradius 45.2826
rwrist 8.40909
rhand -13.4545 -22.5057
rfingers 7.12502
rthumb 12.655 -52.1024
lclavicle 7.01213e-014 -1.43125e-014
lhumerus -47.2587 30.8776 60.5692
lradius 20.2088
lwrist -34.7444
lhand -8.73188 19.4809
lfingers 7.12502
lthumb 17.2045 48.7392
rfemur 0.791561 0.0869076 32.1843
rtibia 26.3936
rfoot -15.2225 -10.9079
rtoes -11.2756
lfemur -29.1397 -6.55774 -8.97564
ltibia 18.3971
lfoot 1.32856 2.99992
ltoes -4.98079
57
root 22.0682 17.6302 5.79142 46.1303 -79.1615 -38.9967
lowerback -2.92675 4.39602 3.81051
upperback -2.96591 5.75798 -0.223871
thorax -1.01937 2.80271 -2.21783
lowerneck -7.85077 -10.2756 -13.6654
upperneck 7.96375 -13.1677 9.15958
head 5.18439 -6.43346 3.97028
rclavicle 6.97486e-014 4.77083e-015
rhumerus -19.8238 15.2165 -82.0764
rradius 42.9002
rwrist 8.60179
rhand -12.7279 -22.6531
rfingers 7.12502
rthumb 13.3555 -52.2051
lclavicle 6.97486e-014 4.77083e-015
lhumerus -47.3825 31.0726 60.3773
lradius 20.1112
lwrist -34.942
lhand -8.69474 19.448
lfingers 7.12502
lthumb 17.2403 48.7033
rfemur 0.462334 -0.166232 31.7404
rtibia 27.9874
rfoot -14.5294 -10.5079
rtoes -12.079
lfemur -28.6969 -6.59987 -9.39589
ltibia 18.7969
lfoot 1.32766 2.7081
ltoes -3.39259
